<svg xmlns="http://www.w3.org/2000/svg" viewBox="0 0 512 512">
  <defs>
    <style>
      .cls-1 {
        fill: #ecb64f;
      }

      .cls-2 {
        stroke: #000;
        stroke-miterlimit: 10;
        stroke-width: 3px;
      }
    </style>
  </defs>
  <g id="bannana">
    <g>
      <path class="cls-1" d="M346.59,129.37C332.5,119,316,111.5,301.34,101.82c-7-4.62-16-13.08-21.72-17.65-12.55-6.27-18.72-16.41-21.77-26.86-3-10.15-3.61-20.68-5.59-30.15a18,18,0,0,0-3.62-2.6,1.81,1.81,0,0,0-.39-.14,2.84,2.84,0,0,0-.39.58,19.07,19.07,0,0,0-1.32,4c-.83,3.54-1.36,8.32-2.21,12.94s-1.78,9.17-4.8,12.9v0l-.05.05c-3.7,4.4-4.55,8.12-4,12.35s3,9,6.56,14c7.24,10,19.1,20.21,27.7,29.66l.84.93.24,1.18c13.41,57.44,22.88,105,16.62,146.77S258.73,337,210.26,368.36l-.2.1-.14.05c-53.2,28.76-77.37,53-88.69,71.77-11.07,18.33-10.07,31.05-11.86,41.27.17,2.64.13,4.87.24,6,86.54-4.72,166.47-36.4,218.25-90,52-53.8,76-129.41,50.54-224C372.36,152.58,360.65,139.71,346.59,129.37Z"/>
      <path class="cls-2" d="M387.43,171.05V171c-6.66-23.19-20.17-38.11-35.3-49.22S320.27,103.09,306.44,94c-5.62-3.7-14.93-12.32-21.22-17.35l-.4-.34-.49-.25C273.71,71,269.5,63.85,266.83,54.71s-3.2-20.13-5.68-31.08l-.3-1.42-1-.93a26.2,26.2,0,0,0-7.4-5.34,11.53,11.53,0,0,0-4-1,8.85,8.85,0,0,0-1,0h0a8.26,8.26,0,0,0-2.94.69,10.37,10.37,0,0,0-5,5.05,26.53,26.53,0,0,0-2.11,6.22c-1,4.36-1.58,9.15-2.35,13.34s-2,7.57-2.8,8.63l-.05,0a25.15,25.15,0,0,0-6,19.65c.89,6.58,4.11,12.6,8.24,18.29,8,11,19.61,21.06,27.55,29.61,13.2,56.67,22,103,16.18,142-5.89,39.26-26.08,71.58-72.9,101.87-53.94,29.2-79.56,54.35-92.07,75.05s-11.7,37.31-13.18,45.11l-.1.63,0,.64c.17,2.1-.15,4.86.39,8a9,9,0,0,0,2.45,5.1,8.7,8.7,0,0,0,6.37,2.21c88.88-4.65,171.42-37,225.46-93s79.07-135.75,52.85-233ZM327.82,397.58c-51.78,53.6-131.71,85.28-218.25,90-.11-1.16-.07-3.39-.24-6,1.79-10.22.79-22.94,11.86-41.27,11.32-18.75,35.49-43,88.69-71.77l.14-.05.2-.1c48.47-31.32,71-66.76,77.21-108.49s-3.21-89.33-16.62-146.77l-.24-1.18-.84-.93c-8.6-9.45-20.46-19.7-27.7-29.66-3.61-5-6-9.79-6.56-14s.27-8,4-12.35l.05-.05v0c3-3.73,3.95-8.27,4.8-12.9s1.38-9.4,2.21-12.94a19.07,19.07,0,0,1,1.32-4,2.84,2.84,0,0,1,.39-.58h0a1.81,1.81,0,0,1,.39.14,18,18,0,0,1,3.62,2.6c2,9.47,2.63,20,5.59,30.15,3.05,10.45,9.22,20.59,21.77,26.86,5.67,4.57,14.69,13,21.72,17.65C316,111.5,332.46,119,346.55,129.37s25.77,23.21,31.81,44.17C403.86,268.17,379.78,343.78,327.82,397.58Z"/>
      <polygon class="cls-2" points="248.2 24.41 248.21 24.42 248.21 24.41 248.2 24.41"/>
    </g>
  </g>
</svg>
