<svg xmlns="http://www.w3.org/2000/svg" xmlns:xlink="http://www.w3.org/1999/xlink" viewBox="0 0 512 512">
  <defs>
    <style>
      .cls-1, .cls-11, .cls-7 {
        fill: none;
      }

      .cls-2 {
        fill: #c93;
      }

      .cls-3 {
        fill: #ecb64f;
      }

      .cls-4 {
        fill: #7f5b13;
        fill-opacity: 0;
        stroke: #3c2c1e;
        stroke-width: 10px;
      }

      .cls-11, .cls-4, .cls-7 {
        stroke-linecap: round;
        stroke-linejoin: round;
      }

      .cls-5 {
        fill: #ff82c9;
        fill-rule: evenodd;
      }

      .cls-6 {
        clip-path: url(#clip-path);
      }

      .cls-11, .cls-7 {
        stroke: #252525;
      }

      .cls-7 {
        stroke-width: 5px;
      }

      .cls-8 {
        fill: #ff5cb8;
      }

      .cls-9 {
        fill: #252525;
      }

      .cls-10 {
        fill: #fff;
      }

      .cls-11 {
        stroke-width: 9.56px;
      }
    </style>
    <clipPath id="clip-path">
      <path class="cls-1" d="M238.48,336c-6.95,41.4,32.92,35.53,24.33,0"/>
    </clipPath>
  </defs>
  <g id="bannanaface">
    <g>
      <g>
        <path class="cls-2" d="M479.06,172.33s-3.84-2.28-10.09-6c-6,9.14-13.46,16.48-15.85,17-5.64,1.12-35-19.05-35-19.05s11.31,227.53-210.94,227.53c-68.5,0-116.18-22.43-149-51.33C87.92,381.8,140.11,422,229.4,422c212,0,201.24-218.46,201.24-218.46s28,19.37,33.36,18.29S501.66,183.09,479.06,172.33Z"/>
        <path class="cls-3" d="M418.15,164.28s29.33,20.17,35,19.05c2.39-.47,9.86-7.81,15.85-17-26.14-15.34-94.46-55-99.67-53.24-6.46,2.16-38.75,32.29-30.13,36.59s35.51,21.53,35.51,21.53S317.64,252,228.32,253c-61.57.74-164.65-43-171.11-43S23.85,248.74,21.7,252c-1.1,1.64,5.62,45.67,36.47,88.51,32.86,28.9,80.54,51.33,149,51.33C429.46,391.81,418.15,164.28,418.15,164.28Z"/>
      </g>
      <path id="path872" class="cls-4" d="M479.06,172.33S375.75,111,369.3,113.14s-38.75,32.29-30.13,36.59,35.51,21.53,35.51,21.53S317.64,252,228.32,253c-61.57.74-164.65-43-171.11-43S23.85,248.74,21.7,252,47.53,422,229.4,422c212,0,201.24-218.46,201.24-218.46s28,19.37,33.36,18.29S501.66,183.09,479.06,172.33Z"/>
      <g>
        <g>
          <g>
            <path class="cls-5" d="M238.48,336c-6.95,41.4,32.92,35.53,24.33,0"/>
            <g class="cls-6">
              <path class="cls-7" d="M250.77,336.22v13.49"/>
            </g>
            <path class="cls-7" d="M238.48,336c-6.95,41.4,32.92,35.53,24.33,0"/>
          </g>
          <path class="cls-7" d="M230.69,334.82l40.31-.21"/>
        </g>
        <g>
          <g>
            <ellipse class="cls-8" cx="167.03" cy="349.9" rx="24.16" ry="6.13"/>
            <g>
              <circle class="cls-9" cx="180.55" cy="322.79" r="26.9"/>
              <circle class="cls-10" cx="169.64" cy="311.12" r="8.21"/>
              <circle class="cls-10" cx="173.75" cy="323.67" r="2.71"/>
              <circle class="cls-10" cx="180.55" cy="316.16" r="1.41"/>
            </g>
          </g>
          <g>
            <ellipse class="cls-8" cx="336.17" cy="349.69" rx="24.16" ry="6.13"/>
            <g>
              <circle class="cls-9" cx="322.75" cy="320.96" r="26.9"/>
              <circle class="cls-10" cx="311.85" cy="309.28" r="8.21"/>
              <circle class="cls-10" cx="315.96" cy="321.83" r="2.71"/>
              <circle class="cls-10" cx="322.75" cy="314.32" r="1.41"/>
            </g>
          </g>
        </g>
        <g>
          <path class="cls-11" d="M150,286.15c7.59-8.41,20.42-13.32,37.61-10"/>
          <path class="cls-11" d="M352.22,286.15c-7.59-8.41-20.42-13.32-37.61-10"/>
        </g>
      </g>
    </g>
  </g>
</svg>
