<svg xmlns="http://www.w3.org/2000/svg" viewBox="0 0 512 512">
  <defs>
    <style>
      .cls-1 {
        fill: #9e9ecc;
      }

      .cls-2 {
        fill: #d4d4f1;
      }
    </style>
  </defs>
  <g id="berry">
    <g>
      <g>
        <ellipse class="cls-1" cx="255.67" cy="265.03" rx="231.18" ry="206.16"/>
        <path id="path4002" d="M210.7,14.6a11.67,11.67,0,0,0-2,.54,15.39,15.39,0,0,0-8.79,6.63l-3.38,4.87,1.35,5.68c.93,3.83.21,6.31-1.35,9.74C127.22,54.56,66.57,96.53,36.73,161.92-14,273.07,44.08,407.26,164.3,462.12s259.63,10.77,310.34-100.39c38.83-85.09,13.78-183.68-54-249.87.3-4.28.51-8.21.68-11l2-32.34-21.65,20c-.44-1.87-.83-2.87-1.21-5.14-.87-5.07-1.58-10.33-2.71-15.28l-1.08-5.28-4.6-2.84a15.79,15.79,0,0,0-19.21,2.16,48.46,48.46,0,0,0-5.68,6.09,23.27,23.27,0,0,1-2.3,2.3c-1.7-.94-3.55-1.8-5.28-2.7-.34-.56-.53-.71-.95-1.49-2.28-4.22-4.06-11.36-5.27-18.13s-.89-11.48-3.93-18.94c-.76-1.86-1.48-4.83-6.63-7.71a15.17,15.17,0,0,0-9.6-1.49,13.93,13.93,0,0,0-6.36,3.11c-4.55,3.86-5.18,6.42-6.36,9.61-7.09,9.73-13.76,12.83-16.77,13.25-1.1-.28-2.29-.67-3.39-.94a5.67,5.67,0,0,1-1.08-1.08c-1.42-2-3.1-6.32-3.65-13.26l-12.72.4,5.68-10.95c-8-4.1-18-2.06-23.94,1.62s-10,8.31-13.8,12.72c-1.2,1.38-2,2.32-3.11,3.65-5.89-.18-11.89-.37-17.72-.14a58.61,58.61,0,0,0-.82-7.17c-.72-3.45-.52-6.8-5.95-12.17a17.45,17.45,0,0,0-10.55-4.2,13.75,13.75,0,0,0-2,0Zm48.16,50.19a229.22,229.22,0,0,1,32.88,5.14,27.63,27.63,0,0,0,7.57,2.16c.34,0,.62,0,.95,0a239.48,239.48,0,0,1,36.12,13c2.79,1.27,5.41,2.7,8.12,4.06a31.53,31.53,0,0,0,14.07,7.58,232.22,232.22,0,0,1,28.68,20,14.34,14.34,0,0,0-6.09,5.14,15,15,0,0,0-1.89,3.92c-.69-2-1.95-4.28-6.77-6.49a15.2,15.2,0,0,0-11.36.13,13.78,13.78,0,0,0-5,3.79,21.5,21.5,0,0,0-3.51,5.55l-.27.81-.41.95a22.52,22.52,0,0,1-5.68,9.06,7.24,7.24,0,0,1-3.79,2.17,17,17,0,0,1-4.6-3.66,34.94,34.94,0,0,1-6.09-10L324.07,107l-14.34,17.18c-8.31,9.95-17.41,19.13-20.43,20.29-1.51.58-.41.78-2-.27s-5.53-5.07-9.87-13.93l-.14-.27-.13-.14a64.16,64.16,0,0,1-2.57-8.66c-1.06-4.29-1.63-9.59-6.63-15.55L257.65,93.47l-9.88,12.45c-6.4,8-10.21,8.79-10,8.79s-.38.3-2.84-3.38C230,104,225.44,85.25,224.5,73.58v-.13a67.35,67.35,0,0,0,12.86,2l2,.27,1.9-.41c8-1.66,13.22-6.21,17.59-10.55ZM187.57,70.2v.14a43.29,43.29,0,0,0-.27,5.54,34,34,0,0,0,1.35,8.39c.86,2.89,2.52,8.39,9.74,10.69a12.63,12.63,0,0,0,3.11.27c2.22,10.48,5.78,21.39,11.91,30.57,5.08,7.62,13.75,15.21,25.16,14.88,4.84-.13,9.18-1.82,13.39-4.19a38,38,0,0,0,2.17,5.14l-.14.14c.09.17.19.23.27.4,5.41,10.92,11.13,18.79,18.81,23.81a29.38,29.38,0,0,0,25.57,2.71c8.22-3.15,14.29-8.28,19.48-13.94.21.24.33.44.54.68,5,5.59,11.34,11,20.7,12.31H340c9.56.72,17.8-3.57,23.81-9.06.08-.07.06-.2.14-.27,2.91,2.39,6.5,4.21,9.87,4.46,6.58.49,11.15-2,15-4.73a38.18,38.18,0,0,0,8.12-8c3.27.87,9.1-.12,12.17-2.7a27.2,27.2,0,0,0,4.74-5.14c51.87,58.49,68.9,139.13,37.2,208.6-44.31,97.13-167.38,137.21-276,87.67s-159-168.85-114.72-266C84.49,119.81,131.9,84,187.57,70.2Z"/>
      </g>
      <circle class="cls-2" cx="139.29" cy="203.29" r="78.02"/>
    </g>
  </g>
</svg>
