<svg id="avacado" xmlns="http://www.w3.org/2000/svg" viewBox="0 0 512 512">
  <defs>
    <style>
      .cls-1 {
        fill: #231f20;
        stroke: #231f20;
        stroke-width: 0.22px;
      }

      .cls-2 {
        fill: none;
        stroke: #000;
        stroke-miterlimit: 10;
        stroke-width: 4px;
      }

      .cls-3 {
        fill: #f3ff99;
      }

      .cls-4 {
        fill: #975928;
        isolation: isolate;
      }
    </style>
  </defs>
  <g>
    <path class="cls-1" d="M246.49,5.44a83.57,83.57,0,0,1,56.88,15.08,77.32,77.32,0,0,1,27.39,35.26c8.35,20.31,9.37,42.82,18.15,63,7.4,15.88,16,31.16,24.34,46.54,5.53,10.1,11.85,19.76,17.14,30,18.53,35.5,30.8,74.53,33.93,114.53,3,39.28-3.68,80.21-23.86,114.46a169.13,169.13,0,0,1-287,5.85c-21-32-29.2-71-28.1-108.91C86.65,276.71,99.9,233,120.62,193.8c7.45-13.69,15.78-26.87,23-40.68q8.73-16.08,16.75-32.53c9.5-20.44,10.41-43.55,18.84-64.37,10.27-28,37.88-47.71,67.23-50.78m-22,24.06a60.75,60.75,0,0,0-29.41,32.29c-8.37,21.08-9.44,44.39-19.08,65.06-9.67,20.07-20.27,39.71-31.48,59a299.63,299.63,0,0,0-27.24,56.95C102,286.2,96.15,334.37,108.79,379.19a148.37,148.37,0,0,0,66.32,87.86c3.51,2.87,7.73,4.68,11.73,6.78a150.42,150.42,0,0,0,89,14.88,153.11,153.11,0,0,0,95.11-51.86c20.77-23.92,32.59-54.68,36-86,5.3-46.66-5.86-94-25.62-136.15-3.11-5.83-5.28-12.28-9.58-17.39l.22-.58c-11.47-19.72-22.74-39.59-33-60a171,171,0,0,1-7.45-16.1c-7.67-20-9-41.83-17.55-61.49C307.2,43.26,293,31,276.75,25.47,259.83,19.55,240.19,20.67,224.49,29.5Z"/>
    <path class="cls-2" d="M328,356.94a105.6,105.6,0,0,0-6.28-61.06,13.6,13.6,0,0,0-3.86-5.54c-6.5-15.15-15.9-29.37-28.2-40.41l-.12-.63a158.33,158.33,0,0,0-17.17-14,26.36,26.36,0,0,0-17.86-4.11c-.88.11-1.76.25-2.63.44a29.87,29.87,0,0,0-11,5.53q-2,1.47-4,3c-12.81,10.11-24.09,22.38-32.15,36.62a105.47,105.47,0,0,0-12.11,72.1c1.23,4.7,2.09,9.83,4.85,13.89h0c2.53,6.91,7.26,12.85,12.43,18h0a9.19,9.19,0,0,0,2.13,4.38l0,.06a41.47,41.47,0,0,0,3.45,3.44c8.36,7.34,18.77,12.08,29.56,14.56l.33,0c18.84,3.77,39.36,1.66,56.07-8.24A53.23,53.23,0,0,0,318,379.89c.25-.36.54-.69.79-1.05A60.62,60.62,0,0,0,328,356.94Z"/>
  </g>
  <g>
    <path class="cls-3" d="M371.75,197.33l.22-.58c-11.47-19.72-22.74-39.59-33-60a171,171,0,0,1-7.45-16.1c-7.68-20-9-41.83-17.55-61.49C307.2,43.26,293,31,276.76,25.47c-16.93-5.92-36.57-4.8-52.27,4a60.75,60.75,0,0,0-29.41,32.29c-8.37,21.08-9.44,44.39-19.08,65.06-9.67,20.07-20.27,39.71-31.48,59a299.63,299.63,0,0,0-27.24,56.95C102,286.2,96.15,334.37,108.79,379.19a148.37,148.37,0,0,0,66.32,87.86c3.51,2.87,7.73,4.68,11.73,6.78a150.42,150.42,0,0,0,89,14.88,153.11,153.11,0,0,0,95.11-51.86c20.77-23.92,32.59-54.68,36-86,5.3-46.66-5.86-94-25.62-136.15C378.22,208.89,376.05,202.44,371.75,197.33ZM328,356.94a60.62,60.62,0,0,1-9.24,21.9c-.25.36-.54.69-.79,1.05a53.23,53.23,0,0,1-16.47,15.21c-16.71,9.9-37.23,12-56.07,8.24l-.33,0c-10.79-2.48-21.2-7.22-29.56-14.56a41.47,41.47,0,0,1-3.45-3.44l0-.06a9.19,9.19,0,0,1-2.13-4.38h0c-5.17-5.16-9.9-11.1-12.43-18h0c-2.76-4.06-3.62-9.19-4.85-13.89a105.47,105.47,0,0,1,12.11-72.1c8.06-14.24,19.34-26.51,32.15-36.62q1.95-1.54,4-3a29.87,29.87,0,0,1,11-5.53c.87-.19,1.75-.33,2.63-.44a26.36,26.36,0,0,1,17.86,4.11,158.33,158.33,0,0,1,17.17,14l.12.63c12.3,11,21.7,25.26,28.2,40.41a13.6,13.6,0,0,1,3.86,5.54A105.6,105.6,0,0,1,328,356.94Z"/>
    <path class="cls-4" d="M317.84,290.34c-6.5-15.15-15.9-29.37-28.2-40.41l-.12-.63a158.33,158.33,0,0,0-17.17-14,26.36,26.36,0,0,0-17.86-4.11c-.88.11-1.76.25-2.63.44a29.87,29.87,0,0,0-11,5.53q-2,1.47-4,3c-12.81,10.11-24.09,22.38-32.15,36.62a105.47,105.47,0,0,0-12.11,72.1c1.23,4.7,2.09,9.83,4.85,13.89h0c2.53,6.91,7.26,12.85,12.43,18h0a9.19,9.19,0,0,0,2.13,4.38l0,.06a41.47,41.47,0,0,0,3.45,3.44c8.36,7.34,18.77,12.08,29.56,14.56l.33,0c18.84,3.77,39.36,1.66,56.07-8.24A53.23,53.23,0,0,0,318,379.89c.25-.36.54-.69.79-1.05a60.62,60.62,0,0,0,9.24-21.9,105.6,105.6,0,0,0-6.28-61.06A13.6,13.6,0,0,0,317.84,290.34Z"/>
  </g>
</svg>
