<svg xmlns="http://www.w3.org/2000/svg" viewBox="0 0 512 512">
  <defs>
    <style>
      .cls-1 {
        fill: #dd3f43;
      }

      .cls-2, .cls-3 {
        fill-opacity: 0;
        stroke: #3c2c1e;
        stroke-linecap: round;
        stroke-linejoin: round;
      }

      .cls-2 {
        stroke-width: 16px;
      }

      .cls-3, .cls-4 {
        fill: #3c2c1e;
      }

      .cls-3 {
        stroke-width: 20px;
      }
    </style>
  </defs>
  <g id="pepper">
    <g>
      <path id="path859" class="cls-1" d="M167.72,140.94c-32.59,12.76-44.89,89.67-44.29,107.57S163.94,307,172.14,314.1s-12.23,34.54-1.62,57.14c6.32,13.41,70.42,31.55,84.19,52C266,440,360.28,491.78,378.44,489.86s-40.9-84.58-49.36-97.19-.15-34.21-1.26-49.47S309,313.55,304.51,308.56s20.1-39.84,21-65.64-62-88.7-62-88.7C241.9,132.2,200.3,128.17,167.72,140.94Z"/>
      <g>
        <path id="path859-2" data-name="path859" class="cls-2" d="M167.72,140.94c-32.59,12.76-44.89,89.67-44.29,107.57S163.94,307,172.14,314.1s-12.23,34.54-1.62,57.14c6.32,13.41,70.42,31.55,84.19,52C266,440,360.28,491.78,378.44,489.86s-40.9-84.58-49.36-97.19-.15-34.21-1.26-49.47S309,313.55,304.51,308.56s20.1-39.84,21-65.64-62-88.7-62-88.7C241.9,132.2,200.3,128.17,167.72,140.94Z"/>
        <path id="path863" class="cls-3" d="M190.15,107.41,162.68,24.09l-21.56,5.35L172,116.18l-12,33.21c52.22,26.64,71.56-9.26,71.56-9.26Z"/>
      </g>
      <path class="cls-4" d="M162.68,24.3l-21.56,5.35L172,116.38l-12,33.21c52.22,26.64,71.56-9.25,71.56-9.25l-41.46-32.73Z"/>
    </g>
  </g>
</svg>
